<svg width="70" height="26" viewBox="0 0 70 26" xmlns="http://www.w3.org/2000/svg"><title>company_en_70x26</title><path d="M18.904 21.856c-.442.693-1.296 1.26-2.15 1.26-1.264 0-1.864-1.197-1.864-3.024 0-2.047.664-3.4 3.73-3.4h.284v5.164zm2.435-.472V13.92c0-3.843-1.55-5.04-4.37-5.04-1.61 0-3.068.66-3.795 1.26l.474 2.173c.822-.725 1.897-1.386 3.16-1.386 1.392 0 2.087.882 2.087 2.96v.946h-.347c-4.456 0-6.194 2.14-6.194 5.543 0 3.118 1.55 4.82 3.824 4.82 1.39 0 2.276-.6 2.97-1.482h.16c.03.41.126.914.22 1.26h2.087c-.126-.756-.284-2.078-.284-3.59zm5.53-8.725c.57-.79 1.45-1.58 2.49-1.58.95 0 1.486.41 1.486 1.603V24.97h2.5v-12.5c0-2.425-1.108-3.59-3.194-3.59-1.487 0-2.688.976-3.13 1.575h-.16V9.07H24.4v15.904h2.467V12.66zm16.74 11.05h.16l.18 1.26h1.835V2.99H43.32v6.49c-.473-.347-1.264-.598-2.022-.598-3.194 0-5.407 2.866-5.407 8.755 0 4.914 1.71 7.56 4.84 7.56 1.297 0 2.18-.6 2.878-1.48zm-.25-1.837c-.42.63-1.08 1.23-2.31 1.23-1.8 0-2.5-2.27-2.5-5.986 0-3.245.95-6.238 2.94-6.238.82 0 1.36.25 1.862.754v10.24zm13.92 2.02l-.57-1.888c-.63.44-1.64 1.07-3.038 1.07-1.96 0-2.973-1.89-2.973-5.48h6.64v-1.35c0-5.386-1.74-7.37-4.396-7.37-3.38 0-4.805 3.716-4.805 8.82 0 4.88 2.025 7.495 5.31 7.495 1.583 0 2.816-.503 3.827-1.29zM52.95 10.89c1.42 0 1.863 1.984 1.863 4.692H50.74c.157-2.834.694-4.692 2.21-4.692zM65.66 9.1l-2.18 5.764L61.423 9.1h-2.56l3.002 7.654-3.32 8.22h2.435l2.404-6.55 2.465 6.55h2.56l-3.32-8.44L68.06 9.1h-2.4zM8.055 24.974v-7.968L14.28 0h-2.61L6.855 13.604 3.035 2.972H.18l5.377 13.94v8.062z" fill="#fff" fill-rule="evenodd"/></svg>
